<svg id="Capa_1" data-name="Capa 1" xmlns="http://www.w3.org/2000/svg" viewBox="0 0 155.22 63.79"><defs><style>.cls-1{fill:#972f29;}.cls-2{fill:#882b25;}.cls-3{fill:#68231a;}</style></defs><title>logoCasin</title><path d="M152.33,57.36c-.57-.75-.34-2.52-.25-3.67.49-6.76,1.35-15.2,1.51-17.44.24-3.42,1.06-7.13-2.2-10.23s-6.11-4.28-16.95-4.28H120.67l-.12,5.59,2.57.1-2.41,30.42s-1.85,0-4.29-.11c-2.67-.13-4.34-.25-3.73-6.48.43-4.39,2.52-29.52,2.52-29.52h-22c-3.83,0-12.73-.69-16.56,2.08s-5.18,4.75-5.58,8.89c-.78,8,12.48,14.88,11.75,20.51-.4,3.06-.84,4.7-4.75,4.7H66.82c-1.63,0-2.52-.38-2.52-3.8l2.28-32.38H47.18a16.38,16.38,0,0,0-11,3.8c-2.77,2.52-4.08,4.91-4.16,8.24s-1.22,14.11-1.3,16.88-2.29,7.26-7.17,7.26H16.31c-2.45,0-3.51-.33-4.57-1.71s-.57-2.89-.48-5.74,2.28-27.2,2.6-32.25S14.68,9,18.83,9H31.54V3.17H20.18c-5.95,0-9.37.24-12.39,2.85A15.47,15.47,0,0,0,2.7,17.08C2.46,21.65.91,40.09.42,46.45S-.72,56.55,2.3,59.39s5.53,4.32,11.56,4.32,6.93.08,9,.08c4.41,0,7.58-1.14,10.19-4.48,0,0,4.07,4.36,9.13,4.36s4.68,0,6.06,0,3.83-.82,6.19-3.26a7.79,7.79,0,0,0,6.73,3.42l20.36,0c2.69,0,7.27-.07,11.53-4,3-2.77,4.56-9.62,1.19-14.54-2.91-4.23-8.07-10-10.47-13.45a2.38,2.38,0,0,1,.38-3.44c1.15-.76,3.27-.72,4-.72H103.4s-1.55,18.48-2,22.55-.33,7.13,1.87,9.5,4.89,4.12,11.16,4.12h17l3-36.17h4.16A3.72,3.72,0,0,1,142,29.05c.69,1.11.81,3.05.4,6.55,0,0-1.49,14.37-1.75,18.29-.65,10.06,7.54,9.86,10.55,9.86,1.1,0,4,0,4,0V58.41A3.6,3.6,0,0,1,152.33,57.36Zm-99.1-7c-.3,4.28-2.81,7.7-6.9,7.76-4.52.06-4.64-2.08-4.15-7.89s1-12.83,1.15-15.94.19-6.6,4.83-6.6,6.66-.06,6.66-.06S53.54,46.07,53.23,50.35Z"/><path class="cls-1" d="M116.11,5.62A5.63,5.63,0,1,1,110.49,0,5.62,5.62,0,0,1,116.11,5.62Z"/><path class="cls-2" d="M98.14,5.84A3.82,3.82,0,1,1,94.33,2,3.82,3.82,0,0,1,98.14,5.84Z"/><path class="cls-2" d="M130.1,5.84A3.82,3.82,0,1,1,126.28,2,3.82,3.82,0,0,1,130.1,5.84Z"/><path class="cls-3" d="M83.35,5.72A2.62,2.62,0,1,1,80.73,3.1,2.63,2.63,0,0,1,83.35,5.72Z"/><path class="cls-3" d="M142.37,5.72a2.62,2.62,0,1,1-2.61-2.62A2.62,2.62,0,0,1,142.37,5.72Z"/></svg>